# xmcd CD database file
#
# Track frame offsets:
#	150
#	24931
#	50088
#	84495
#	105940
#	152959
#	182724
#	216700
#	237597
#	262747
#
# Disc length: 3869 seconds
#
# Revision: 2
# Processed by: cddbd v1.5.2PL0 Copyright (c) Steve Scherf et al.
# Submitted via: CDex 1.51
#
DISCID=830f1b0a
DTITLE=Lee Konitz with Mario Rusca - Vol. 303 - Where's The Blues
DYEAR=1997
DGENRE=Jazz
TTITLE0=Where's the blues?
TTITLE1=Beautiful love
TTITLE2=Thingin'
TTITLE3=Summertime
TTITLE4=To lee or not to lee
TTITLE5=On green dolphin street
TTITLE6=Autumn leaves
TTITLE7=Anthropology
TTITLE8=Have you met miss jones
TTITLE9=I should care
EXTD=YEAR: 1997
EXTT0=
EXTT1=
EXTT2=
EXTT3=
EXTT4=
EXTT5=
EXTT6=
EXTT7=
EXTT8=
EXTT9=
PLAYORDER=
